solid OpenSCAD_Model
  facet normal 0 0.809017 0.587785
    outer loop
      vertex 45 -9 2.75546e-15
      vertex -45 -9.69098 0.951056
      vertex 45 -9.69098 0.951056
    endloop
  endfacet
  facet normal -3.56778e-17 0.809017 0.587785
    outer loop
      vertex -45 -9.69098 0.951056
      vertex 45 -9 2.75546e-15
      vertex -45 -9 -2.75546e-15
    endloop
  endfacet
  facet normal 0 -1 0
    outer loop
      vertex -45 -10.809 -0.587785
      vertex 45 -10.809 0.587785
      vertex -45 -10.809 0.587785
    endloop
  endfacet
  facet normal 0 -1 -0
    outer loop
      vertex 45 -10.809 0.587785
      vertex -45 -10.809 -0.587785
      vertex 45 -10.809 -0.587785
    endloop
  endfacet
  facet normal 0 -0.309017 0.951056
    outer loop
      vertex -45 -9.69098 0.951056
      vertex 45 -10.809 0.587785
      vertex 45 -9.69098 0.951056
    endloop
  endfacet
  facet normal 0 -0.309017 0.951056
    outer loop
      vertex 45 -10.809 0.587785
      vertex -45 -9.69098 0.951056
      vertex -45 -10.809 0.587785
    endloop
  endfacet
  facet normal 0 -0.309017 -0.951056
    outer loop
      vertex -45 -10.809 -0.587785
      vertex 45 -9.69098 -0.951056
      vertex 45 -10.809 -0.587785
    endloop
  endfacet
  facet normal -0 -0.309017 -0.951056
    outer loop
      vertex 45 -9.69098 -0.951056
      vertex -45 -10.809 -0.587785
      vertex -45 -9.69098 -0.951056
    endloop
  endfacet
  facet normal -1 0 0
    outer loop
      vertex -45 -9.69098 -0.951056
      vertex -45 -9.69098 0.951056
      vertex -45 -9 -2.75546e-15
    endloop
  endfacet
  facet normal -1 0 0
    outer loop
      vertex -45 -10.809 -0.587785
      vertex -45 -9.69098 0.951056
      vertex -45 -9.69098 -0.951056
    endloop
  endfacet
  facet normal -1 0 0
    outer loop
      vertex -45 -9.69098 0.951056
      vertex -45 -10.809 -0.587785
      vertex -45 -10.809 0.587785
    endloop
  endfacet
  facet normal 1 0 0
    outer loop
      vertex 45 -9.69098 0.951056
      vertex 45 -9.69098 -0.951056
      vertex 45 -9 2.75546e-15
    endloop
  endfacet
  facet normal 1 -0 0
    outer loop
      vertex 45 -10.809 0.587785
      vertex 45 -9.69098 -0.951056
      vertex 45 -9.69098 0.951056
    endloop
  endfacet
  facet normal 1 0 0
    outer loop
      vertex 45 -9.69098 -0.951056
      vertex 45 -10.809 0.587785
      vertex 45 -10.809 -0.587785
    endloop
  endfacet
  facet normal 3.56778e-17 0.809017 -0.587785
    outer loop
      vertex 45 -9.69098 -0.951056
      vertex -45 -9 -2.75546e-15
      vertex 45 -9 2.75546e-15
    endloop
  endfacet
  facet normal 0 0.809017 -0.587785
    outer loop
      vertex -45 -9 -2.75546e-15
      vertex 45 -9.69098 -0.951056
      vertex -45 -9.69098 -0.951056
    endloop
  endfacet
  facet normal 0 0.809017 0.587786
    outer loop
      vertex 45 11 2.75546e-15
      vertex -45 10.309 0.951056
      vertex 45 10.309 0.951056
    endloop
  endfacet
  facet normal -3.56778e-17 0.809017 0.587786
    outer loop
      vertex -45 10.309 0.951056
      vertex 45 11 2.75546e-15
      vertex -45 11 -2.75546e-15
    endloop
  endfacet
  facet normal 0 -1 0
    outer loop
      vertex -45 9.19098 -0.587785
      vertex 45 9.19098 0.587785
      vertex -45 9.19098 0.587785
    endloop
  endfacet
  facet normal 0 -1 -0
    outer loop
      vertex 45 9.19098 0.587785
      vertex -45 9.19098 -0.587785
      vertex 45 9.19098 -0.587785
    endloop
  endfacet
  facet normal 0 -0.309017 0.951056
    outer loop
      vertex -45 10.309 0.951056
      vertex 45 9.19098 0.587785
      vertex 45 10.309 0.951056
    endloop
  endfacet
  facet normal 0 -0.309017 0.951056
    outer loop
      vertex 45 9.19098 0.587785
      vertex -45 10.309 0.951056
      vertex -45 9.19098 0.587785
    endloop
  endfacet
  facet normal 0 -0.309017 -0.951056
    outer loop
      vertex -45 9.19098 -0.587785
      vertex 45 10.309 -0.951056
      vertex 45 9.19098 -0.587785
    endloop
  endfacet
  facet normal -0 -0.309017 -0.951056
    outer loop
      vertex 45 10.309 -0.951056
      vertex -45 9.19098 -0.587785
      vertex -45 10.309 -0.951056
    endloop
  endfacet
  facet normal 1 0 0
    outer loop
      vertex 45 10.309 0.951056
      vertex 45 10.309 -0.951056
      vertex 45 11 2.75546e-15
    endloop
  endfacet
  facet normal 1 -0 0
    outer loop
      vertex 45 9.19098 0.587785
      vertex 45 10.309 -0.951056
      vertex 45 10.309 0.951056
    endloop
  endfacet
  facet normal 1 0 0
    outer loop
      vertex 45 10.309 -0.951056
      vertex 45 9.19098 0.587785
      vertex 45 9.19098 -0.587785
    endloop
  endfacet
  facet normal -1 0 0
    outer loop
      vertex -45 10.309 -0.951056
      vertex -45 10.309 0.951056
      vertex -45 11 -2.75546e-15
    endloop
  endfacet
  facet normal -1 0 0
    outer loop
      vertex -45 9.19098 -0.587785
      vertex -45 10.309 0.951056
      vertex -45 10.309 -0.951056
    endloop
  endfacet
  facet normal -1 0 0
    outer loop
      vertex -45 10.309 0.951056
      vertex -45 9.19098 -0.587785
      vertex -45 9.19098 0.587785
    endloop
  endfacet
  facet normal 3.56778e-17 0.809017 -0.587786
    outer loop
      vertex 45 10.309 -0.951056
      vertex -45 11 -2.75546e-15
      vertex 45 11 2.75546e-15
    endloop
  endfacet
  facet normal 0 0.809017 -0.587786
    outer loop
      vertex -45 11 -2.75546e-15
      vertex 45 10.309 -0.951056
      vertex -45 10.309 -0.951056
    endloop
  endfacet
  facet normal -1 0 0
    outer loop
      vertex 6 11.5 13.25
      vertex 6 12.5 13.75
      vertex 6 12.5 13.25
    endloop
  endfacet
  facet normal -1 -0 0
    outer loop
      vertex 6 12.5 13.75
      vertex 6 11.5 13.25
      vertex 6 11.5 13.75
    endloop
  endfacet
  facet normal 0 -1 0
    outer loop
      vertex 10.75 11.5 13.25
      vertex 11 11.5 13.75
      vertex 6 11.5 13.75
    endloop
  endfacet
  facet normal 0 -1 0
    outer loop
      vertex 10.75 11.5 13.25
      vertex 6 11.5 13.75
      vertex 6 11.5 13.25
    endloop
  endfacet
  facet normal 0 -1 -0
    outer loop
      vertex 11 11.5 13.75
      vertex 10.75 11.5 13.25
      vertex 11 11.5 13.5
    endloop
  endfacet
  facet normal 0 -1 -0
    outer loop
      vertex 11 11.5 13.5
      vertex 10.75 11.5 13.25
      vertex 11.25 11.5 13.5
    endloop
  endfacet
  facet normal 0 -1 0
    outer loop
      vertex 11.25 11.5 -1.5
      vertex 10.75 11.5 13.25
      vertex 10.75 11.5 -1.5
    endloop
  endfacet
  facet normal 0 -1 0
    outer loop
      vertex 10.75 11.5 13.25
      vertex 11.25 11.5 -1.5
      vertex 11.25 11.5 13.5
    endloop
  endfacet
  facet normal 1 -0 0
    outer loop
      vertex 11 11.5 13.75
      vertex 11 12.5 13.5
      vertex 11 12.5 13.75
    endloop
  endfacet
  facet normal 1 0 0
    outer loop
      vertex 11 12.5 13.5
      vertex 11 11.5 13.75
      vertex 11 11.5 13.5
    endloop
  endfacet
  facet normal 0 1 0
    outer loop
      vertex 11.25 12.5 13.5
      vertex 10.75 12.5 13.25
      vertex 11 12.5 13.5
    endloop
  endfacet
  facet normal 0 1 -0
    outer loop
      vertex 11.25 12.5 -1.5
      vertex 10.75 12.5 13.25
      vertex 11.25 12.5 13.5
    endloop
  endfacet
  facet normal 0 1 0
    outer loop
      vertex 10.75 12.5 13.25
      vertex 11.25 12.5 -1.5
      vertex 10.75 12.5 -1.5
    endloop
  endfacet
  facet normal 0 1 0
    outer loop
      vertex 10.75 12.5 13.25
      vertex 11 12.5 13.75
      vertex 11 12.5 13.5
    endloop
  endfacet
  facet normal 0 1 0
    outer loop
      vertex 11 12.5 13.75
      vertex 10.75 12.5 13.25
      vertex 6 12.5 13.75
    endloop
  endfacet
  facet normal 0 1 0
    outer loop
      vertex 6 12.5 13.75
      vertex 10.75 12.5 13.25
      vertex 6 12.5 13.25
    endloop
  endfacet
  facet normal 0 0 -1
    outer loop
      vertex 6 11.5 13.25
      vertex 10.75 12.5 13.25
      vertex 10.75 11.5 13.25
    endloop
  endfacet
  facet normal -0 0 -1
    outer loop
      vertex 10.75 12.5 13.25
      vertex 6 11.5 13.25
      vertex 6 12.5 13.25
    endloop
  endfacet
  facet normal -0 0 1
    outer loop
      vertex 6 12.5 13.75
      vertex 11 11.5 13.75
      vertex 11 12.5 13.75
    endloop
  endfacet
  facet normal 0 0 1
    outer loop
      vertex 11 11.5 13.75
      vertex 6 12.5 13.75
      vertex 6 11.5 13.75
    endloop
  endfacet
  facet normal -1 0 0
    outer loop
      vertex 10.75 11.5 -1.5
      vertex 10.75 12.5 13.25
      vertex 10.75 12.5 -1.5
    endloop
  endfacet
  facet normal -1 -0 0
    outer loop
      vertex 10.75 12.5 13.25
      vertex 10.75 11.5 -1.5
      vertex 10.75 11.5 13.25
    endloop
  endfacet
  facet normal 1 -0 0
    outer loop
      vertex 11.25 11.5 13.5
      vertex 11.25 12.5 -1.5
      vertex 11.25 12.5 13.5
    endloop
  endfacet
  facet normal 1 0 0
    outer loop
      vertex 11.25 12.5 -1.5
      vertex 11.25 11.5 13.5
      vertex 11.25 11.5 -1.5
    endloop
  endfacet
  facet normal -0 0 1
    outer loop
      vertex 11 12.5 13.5
      vertex 11.25 11.5 13.5
      vertex 11.25 12.5 13.5
    endloop
  endfacet
  facet normal 0 0 1
    outer loop
      vertex 11.25 11.5 13.5
      vertex 11 12.5 13.5
      vertex 11 11.5 13.5
    endloop
  endfacet
  facet normal 0 0 -1
    outer loop
      vertex 10.75 11.5 -1.5
      vertex 11.25 12.5 -1.5
      vertex 11.25 11.5 -1.5
    endloop
  endfacet
  facet normal -0 0 -1
    outer loop
      vertex 11.25 12.5 -1.5
      vertex 10.75 11.5 -1.5
      vertex 10.75 12.5 -1.5
    endloop
  endfacet
  facet normal -1 0 0
    outer loop
      vertex -10 -10 1
      vertex -10 15 11
      vertex -10 15 1
    endloop
  endfacet
  facet normal -1 -0 0
    outer loop
      vertex -10 15 11
      vertex -10 -10 1
      vertex -10 -10 11
    endloop
  endfacet
  facet normal -0 0 1
    outer loop
      vertex -10 15 11
      vertex 10 -10 11
      vertex 10 15 11
    endloop
  endfacet
  facet normal 0 0 1
    outer loop
      vertex 10 -10 11
      vertex -10 15 11
      vertex -10 -10 11
    endloop
  endfacet
  facet normal 1 -0 0
    outer loop
      vertex 10 -10 11
      vertex 10 15 1
      vertex 10 15 11
    endloop
  endfacet
  facet normal 1 0 0
    outer loop
      vertex 10 15 1
      vertex 10 -10 11
      vertex 10 -10 1
    endloop
  endfacet
  facet normal 0 0 -1
    outer loop
      vertex -10 -10 1
      vertex 10 15 1
      vertex 10 -10 1
    endloop
  endfacet
  facet normal -0 0 -1
    outer loop
      vertex 10 15 1
      vertex -10 -10 1
      vertex -10 15 1
    endloop
  endfacet
  facet normal 0 -1 0
    outer loop
      vertex -10 -10 1
      vertex 10 -10 11
      vertex -10 -10 11
    endloop
  endfacet
  facet normal 0 -1 -0
    outer loop
      vertex 10 -10 11
      vertex -10 -10 1
      vertex 10 -10 1
    endloop
  endfacet
  facet normal 0 1 -0
    outer loop
      vertex 10 15 1
      vertex -10 15 11
      vertex 10 15 11
    endloop
  endfacet
  facet normal 0 1 0
    outer loop
      vertex -10 15 11
      vertex 10 15 1
      vertex -10 15 1
    endloop
  endfacet
endsolid OpenSCAD_Model
