solid OpenSCAD_Model
  facet normal 0 0.809017 0.587785
    outer loop
      vertex 0.480468 -9 2.94202e-17
      vertex -45 -9.69098 0.951056
      vertex 0.866633 -9.69098 0.951056
    endloop
  endfacet
  facet normal -3.53009e-17 0.809017 0.587785
    outer loop
      vertex -45 -9.69098 0.951056
      vertex 0.480468 -9 2.94202e-17
      vertex -45 -9 -2.75546e-15
    endloop
  endfacet
  facet normal -3.59915e-17 0.809017 0.587785
    outer loop
      vertex 1.76211 -9 1.07898e-16
      vertex 45 -9.69098 0.951056
      vertex 45 -9 2.75546e-15
    endloop
  endfacet
  facet normal 0 0.809017 0.587785
    outer loop
      vertex 45 -9.69098 0.951056
      vertex 1.76211 -9 1.07898e-16
      vertex 1.49022 -9.69098 0.951056
    endloop
  endfacet
  facet normal 0 -1 0
    outer loop
      vertex -45 -10.809 -0.587785
      vertex 45 -10.809 0.587785
      vertex -45 -10.809 0.587785
    endloop
  endfacet
  facet normal 0 -1 -0
    outer loop
      vertex 45 -10.809 0.587785
      vertex -45 -10.809 -0.587785
      vertex 45 -10.809 -0.587785
    endloop
  endfacet
  facet normal 0 -0.309017 0.951056
    outer loop
      vertex 1.49022 -9.69098 0.951056
      vertex 45 -10.809 0.587785
      vertex 45 -9.69098 0.951056
    endloop
  endfacet
  facet normal -5.28497e-09 -0.309018 0.951056
    outer loop
      vertex 1.23257 -9.98319 0.856113
      vertex 45 -10.809 0.587785
      vertex 1.49022 -9.69098 0.951056
    endloop
  endfacet
  facet normal 0 -0.309017 0.951056
    outer loop
      vertex -45 -10.809 0.587785
      vertex 0.866633 -9.69098 0.951056
      vertex -45 -9.69098 0.951056
    endloop
  endfacet
  facet normal 4.97512e-09 -0.309018 0.951056
    outer loop
      vertex 0.866633 -9.69098 0.951056
      vertex -45 -10.809 0.587785
      vertex 1.23257 -9.98319 0.856113
    endloop
  endfacet
  facet normal 0 -0.309017 0.951056
    outer loop
      vertex 1.23257 -9.98319 0.856113
      vertex -45 -10.809 0.587785
      vertex 45 -10.809 0.587785
    endloop
  endfacet
  facet normal 0 -0.309017 -0.951056
    outer loop
      vertex -45 -10.809 -0.587785
      vertex 45 -9.69098 -0.951056
      vertex 45 -10.809 -0.587785
    endloop
  endfacet
  facet normal -0 -0.309017 -0.951056
    outer loop
      vertex 45 -9.69098 -0.951056
      vertex -45 -10.809 -0.587785
      vertex -45 -9.69098 -0.951056
    endloop
  endfacet
  facet normal -1 0 0
    outer loop
      vertex -45 -9.69098 -0.951056
      vertex -45 -9.69098 0.951056
      vertex -45 -9 -2.75546e-15
    endloop
  endfacet
  facet normal -1 0 0
    outer loop
      vertex -45 -10.809 -0.587785
      vertex -45 -9.69098 0.951056
      vertex -45 -9.69098 -0.951056
    endloop
  endfacet
  facet normal -1 0 0
    outer loop
      vertex -45 -9.69098 0.951056
      vertex -45 -10.809 -0.587785
      vertex -45 -10.809 0.587785
    endloop
  endfacet
  facet normal 1 0 0
    outer loop
      vertex 45 -9.69098 0.951056
      vertex 45 -9.69098 -0.951056
      vertex 45 -9 2.75546e-15
    endloop
  endfacet
  facet normal 1 -0 0
    outer loop
      vertex 45 -10.809 0.587785
      vertex 45 -9.69098 -0.951056
      vertex 45 -9.69098 0.951056
    endloop
  endfacet
  facet normal 1 0 0
    outer loop
      vertex 45 -9.69098 -0.951056
      vertex 45 -10.809 0.587785
      vertex 45 -10.809 -0.587785
    endloop
  endfacet
  facet normal 3.49476e-17 0.809017 -0.587785
    outer loop
      vertex 45 -9.69098 -0.951056
      vertex 1.76211 -9 1.07898e-16
      vertex 45 -9 2.75546e-15
    endloop
  endfacet
  facet normal 4.71219e-09 0.809017 -0.587785
    outer loop
      vertex 1.76211 -9 1.07898e-16
      vertex 45 -9.69098 -0.951056
      vertex 1.23257 -9.44744 -0.615846
    endloop
  endfacet
  facet normal -4.4509e-09 0.809017 -0.587785
    outer loop
      vertex -45 -9.69098 -0.951056
      vertex 0.480468 -9 2.94202e-17
      vertex 1.23257 -9.44744 -0.615846
    endloop
  endfacet
  facet normal 3.59915e-17 0.809017 -0.587785
    outer loop
      vertex 0.480468 -9 2.94202e-17
      vertex -45 -9.69098 -0.951056
      vertex -45 -9 -2.75546e-15
    endloop
  endfacet
  facet normal 0 0.809017 -0.587785
    outer loop
      vertex -45 -9.69098 -0.951056
      vertex 1.23257 -9.44744 -0.615846
      vertex 45 -9.69098 -0.951056
    endloop
  endfacet
  facet normal 0 0.809017 0.587786
    outer loop
      vertex 45 11 2.75546e-15
      vertex -45 10.309 0.951056
      vertex 45 10.309 0.951056
    endloop
  endfacet
  facet normal -3.56778e-17 0.809017 0.587786
    outer loop
      vertex -45 10.309 0.951056
      vertex 45 11 2.75546e-15
      vertex -45 11 -2.75546e-15
    endloop
  endfacet
  facet normal 0 -1 0
    outer loop
      vertex -45 9.19098 -0.587785
      vertex 45 9.19098 0.587785
      vertex -45 9.19098 0.587785
    endloop
  endfacet
  facet normal 0 -1 -0
    outer loop
      vertex 45 9.19098 0.587785
      vertex -45 9.19098 -0.587785
      vertex 45 9.19098 -0.587785
    endloop
  endfacet
  facet normal 0 -0.309017 0.951056
    outer loop
      vertex -45 10.309 0.951056
      vertex 45 9.19098 0.587785
      vertex 45 10.309 0.951056
    endloop
  endfacet
  facet normal 0 -0.309017 0.951056
    outer loop
      vertex 45 9.19098 0.587785
      vertex -45 10.309 0.951056
      vertex -45 9.19098 0.587785
    endloop
  endfacet
  facet normal 0 -0.309017 -0.951056
    outer loop
      vertex -45 9.19098 -0.587785
      vertex 45 10.309 -0.951056
      vertex 45 9.19098 -0.587785
    endloop
  endfacet
  facet normal -0 -0.309017 -0.951056
    outer loop
      vertex 45 10.309 -0.951056
      vertex -45 9.19098 -0.587785
      vertex -45 10.309 -0.951056
    endloop
  endfacet
  facet normal 1 0 0
    outer loop
      vertex 45 10.309 0.951056
      vertex 45 10.309 -0.951056
      vertex 45 11 2.75546e-15
    endloop
  endfacet
  facet normal 1 -0 0
    outer loop
      vertex 45 9.19098 0.587785
      vertex 45 10.309 -0.951056
      vertex 45 10.309 0.951056
    endloop
  endfacet
  facet normal 1 0 0
    outer loop
      vertex 45 10.309 -0.951056
      vertex 45 9.19098 0.587785
      vertex 45 9.19098 -0.587785
    endloop
  endfacet
  facet normal -1 0 0
    outer loop
      vertex -45 10.309 -0.951056
      vertex -45 10.309 0.951056
      vertex -45 11 -2.75546e-15
    endloop
  endfacet
  facet normal -1 0 0
    outer loop
      vertex -45 9.19098 -0.587785
      vertex -45 10.309 0.951056
      vertex -45 10.309 -0.951056
    endloop
  endfacet
  facet normal -1 0 0
    outer loop
      vertex -45 10.309 0.951056
      vertex -45 9.19098 -0.587785
      vertex -45 9.19098 0.587785
    endloop
  endfacet
  facet normal 3.56778e-17 0.809017 -0.587786
    outer loop
      vertex 45 10.309 -0.951056
      vertex -45 11 -2.75546e-15
      vertex 45 11 2.75546e-15
    endloop
  endfacet
  facet normal 0 0.809017 -0.587786
    outer loop
      vertex -45 11 -2.75546e-15
      vertex 45 10.309 -0.951056
      vertex -45 10.309 -0.951056
    endloop
  endfacet
  facet normal -1 0 0
    outer loop
      vertex 1 14.5 13.25
      vertex 1 15.5 13.75
      vertex 1 15.5 13.25
    endloop
  endfacet
  facet normal -1 -0 0
    outer loop
      vertex 1 15.5 13.75
      vertex 1 14.5 13.25
      vertex 1 14.5 13.75
    endloop
  endfacet
  facet normal 0 -1 0
    outer loop
      vertex 5.75 14.5 13.25
      vertex 6 14.5 13.75
      vertex 1 14.5 13.75
    endloop
  endfacet
  facet normal 0 -1 0
    outer loop
      vertex 5.75 14.5 13.25
      vertex 1 14.5 13.75
      vertex 1 14.5 13.25
    endloop
  endfacet
  facet normal 0 -1 -0
    outer loop
      vertex 6 14.5 13.75
      vertex 5.75 14.5 13.25
      vertex 6 14.5 13.5
    endloop
  endfacet
  facet normal 0 -1 -0
    outer loop
      vertex 6 14.5 13.5
      vertex 5.75 14.5 13.25
      vertex 6.25 14.5 13.5
    endloop
  endfacet
  facet normal 0 -1 0
    outer loop
      vertex 6.25 14.5 -1.5
      vertex 5.75 14.5 13.25
      vertex 5.75 14.5 -1.5
    endloop
  endfacet
  facet normal 0 -1 0
    outer loop
      vertex 5.75 14.5 13.25
      vertex 6.25 14.5 -1.5
      vertex 6.25 14.5 13.5
    endloop
  endfacet
  facet normal 1 -0 0
    outer loop
      vertex 6 14.5 13.75
      vertex 6 15.5 13.5
      vertex 6 15.5 13.75
    endloop
  endfacet
  facet normal 1 0 0
    outer loop
      vertex 6 15.5 13.5
      vertex 6 14.5 13.75
      vertex 6 14.5 13.5
    endloop
  endfacet
  facet normal 0 1 0
    outer loop
      vertex 6.25 15.5 13.5
      vertex 5.75 15.5 13.25
      vertex 6 15.5 13.5
    endloop
  endfacet
  facet normal 0 1 -0
    outer loop
      vertex 6.25 15.5 -1.5
      vertex 5.75 15.5 13.25
      vertex 6.25 15.5 13.5
    endloop
  endfacet
  facet normal 0 1 0
    outer loop
      vertex 5.75 15.5 13.25
      vertex 6.25 15.5 -1.5
      vertex 5.75 15.5 -1.5
    endloop
  endfacet
  facet normal 0 1 0
    outer loop
      vertex 5.75 15.5 13.25
      vertex 6 15.5 13.75
      vertex 6 15.5 13.5
    endloop
  endfacet
  facet normal 0 1 0
    outer loop
      vertex 6 15.5 13.75
      vertex 5.75 15.5 13.25
      vertex 1 15.5 13.75
    endloop
  endfacet
  facet normal 0 1 0
    outer loop
      vertex 1 15.5 13.75
      vertex 5.75 15.5 13.25
      vertex 1 15.5 13.25
    endloop
  endfacet
  facet normal 0 0 -1
    outer loop
      vertex 1 14.5 13.25
      vertex 5.75 15.5 13.25
      vertex 5.75 14.5 13.25
    endloop
  endfacet
  facet normal -0 0 -1
    outer loop
      vertex 5.75 15.5 13.25
      vertex 1 14.5 13.25
      vertex 1 15.5 13.25
    endloop
  endfacet
  facet normal -0 0 1
    outer loop
      vertex 1 15.5 13.75
      vertex 6 14.5 13.75
      vertex 6 15.5 13.75
    endloop
  endfacet
  facet normal 0 0 1
    outer loop
      vertex 6 14.5 13.75
      vertex 1 15.5 13.75
      vertex 1 14.5 13.75
    endloop
  endfacet
  facet normal -1 0 0
    outer loop
      vertex 5.75 14.5 -1.5
      vertex 5.75 15.5 13.25
      vertex 5.75 15.5 -1.5
    endloop
  endfacet
  facet normal -1 -0 0
    outer loop
      vertex 5.75 15.5 13.25
      vertex 5.75 14.5 -1.5
      vertex 5.75 14.5 13.25
    endloop
  endfacet
  facet normal 1 -0 0
    outer loop
      vertex 6.25 14.5 13.5
      vertex 6.25 15.5 -1.5
      vertex 6.25 15.5 13.5
    endloop
  endfacet
  facet normal 1 0 0
    outer loop
      vertex 6.25 15.5 -1.5
      vertex 6.25 14.5 13.5
      vertex 6.25 14.5 -1.5
    endloop
  endfacet
  facet normal -0 0 1
    outer loop
      vertex 6 15.5 13.5
      vertex 6.25 14.5 13.5
      vertex 6.25 15.5 13.5
    endloop
  endfacet
  facet normal 0 0 1
    outer loop
      vertex 6.25 14.5 13.5
      vertex 6 15.5 13.5
      vertex 6 14.5 13.5
    endloop
  endfacet
  facet normal 0 0 -1
    outer loop
      vertex 5.75 14.5 -1.5
      vertex 6.25 15.5 -1.5
      vertex 6.25 14.5 -1.5
    endloop
  endfacet
  facet normal -0 0 -1
    outer loop
      vertex 6.25 15.5 -1.5
      vertex 5.75 14.5 -1.5
      vertex 5.75 15.5 -1.5
    endloop
  endfacet
  facet normal -1.8193e-08 -0.34202 0.939693
    outer loop
      vertex 14.0883 3.29155 9.17936
      vertex -17.9185 3.99519 9.43546
      vertex 1.23257 -11.1054 3.93931
    endloop
  endfacet
  facet normal -0.766044 0.604023 0.219846
    outer loop
      vertex -5.06279 21.8123 5.27859
      vertex -17.9185 7.41539 0.038537
      vertex -5.06279 18.3921 14.6755
    endloop
  endfacet
  facet normal 0.642788 0.719846 0.262003
    outer loop
      vertex -5.06279 21.8123 5.27859
      vertex -5.06279 18.3921 14.6755
      vertex 14.0883 6.71175 -0.217567
    endloop
  endfacet
  facet normal -1.7216e-08 -0.34202 0.939693
    outer loop
      vertex -5.06279 18.3921 14.6755
      vertex -17.9185 3.99519 9.43546
      vertex 14.0883 3.29155 9.17936
    endloop
  endfacet
  facet normal -0.642788 -0.719846 -0.262003
    outer loop
      vertex 0.480468 -9 2.94202e-17
      vertex 1.23257 -11.1054 3.93931
      vertex -17.9185 3.99519 9.43546
    endloop
  endfacet
  facet normal -0.642788 -0.719846 -0.262003
    outer loop
      vertex 1.23257 -11.1054 3.93931
      vertex 0.480468 -9 2.94202e-17
      vertex 0.866633 -9.69098 0.951056
    endloop
  endfacet
  facet normal -0.642788 -0.719846 -0.262003
    outer loop
      vertex 1.23257 -7.68518 -5.45762
      vertex 0.480468 -9 2.94202e-17
      vertex -17.9185 3.99519 9.43546
    endloop
  endfacet
  facet normal -0.642788 -0.719846 -0.262003
    outer loop
      vertex 0.480468 -9 2.94202e-17
      vertex 1.23257 -7.68518 -5.45762
      vertex 1.23257 -9.44744 -0.615846
    endloop
  endfacet
  facet normal -0.642787 -0.719846 -0.262003
    outer loop
      vertex 1.23257 -11.1054 3.93931
      vertex 0.866633 -9.69098 0.951056
      vertex 1.23257 -9.98319 0.856113
    endloop
  endfacet
  facet normal -0.766044 0.604023 0.219846
    outer loop
      vertex -17.9185 7.41539 0.038537
      vertex -17.9185 3.99519 9.43546
      vertex -5.06279 18.3921 14.6755
    endloop
  endfacet
  facet normal 0.642788 0.719846 0.262003
    outer loop
      vertex 14.0883 6.71175 -0.217567
      vertex -5.06279 18.3921 14.6755
      vertex 14.0883 3.29155 9.17936
    endloop
  endfacet
  facet normal 0.766044 -0.604023 -0.219846
    outer loop
      vertex 14.0883 3.29155 9.17936
      vertex 1.23257 -11.1054 3.93931
      vertex 14.0883 6.71175 -0.217567
    endloop
  endfacet
  facet normal 2.68455e-08 0.34202 -0.939693
    outer loop
      vertex 1.23257 -7.68518 -5.45762
      vertex -17.9185 7.41539 0.038537
      vertex -5.06279 21.8123 5.27859
    endloop
  endfacet
  facet normal -0.642788 -0.719846 -0.262003
    outer loop
      vertex 1.23257 -7.68518 -5.45762
      vertex -17.9185 3.99519 9.43546
      vertex -17.9185 7.41539 0.038537
    endloop
  endfacet
  facet normal 2.68455e-08 0.34202 -0.939693
    outer loop
      vertex 1.23257 -7.68518 -5.45762
      vertex -5.06279 21.8123 5.27859
      vertex 14.0883 6.71175 -0.217567
    endloop
  endfacet
  facet normal 0.766044 -0.604023 -0.219846
    outer loop
      vertex 14.0883 6.71175 -0.217567
      vertex 1.76211 -9 1.07898e-16
      vertex 1.23257 -7.68518 -5.45762
    endloop
  endfacet
  facet normal 0.766044 -0.604023 -0.219846
    outer loop
      vertex 14.0883 6.71175 -0.217567
      vertex 1.49022 -9.69098 0.951056
      vertex 1.76211 -9 1.07898e-16
    endloop
  endfacet
  facet normal 0.766044 -0.604023 -0.219846
    outer loop
      vertex 1.49022 -9.69098 0.951056
      vertex 1.23257 -11.1054 3.93931
      vertex 1.23257 -9.98319 0.856113
    endloop
  endfacet
  facet normal 0.766044 -0.604023 -0.219846
    outer loop
      vertex 1.23257 -11.1054 3.93931
      vertex 1.49022 -9.69098 0.951056
      vertex 14.0883 6.71175 -0.217567
    endloop
  endfacet
  facet normal 0.766044 -0.604023 -0.219846
    outer loop
      vertex 1.23257 -7.68518 -5.45762
      vertex 1.76211 -9 1.07898e-16
      vertex 1.23257 -9.44744 -0.615846
    endloop
  endfacet
endsolid OpenSCAD_Model
